[Header]
FileType HTR
DataType HTRS
FileVersion 1
NumSegments 64
NumFrames 4
DataFrameRate 30
EulerRotationOrder ZYX
CalibrationUnits mm
RotationUnits Degrees
GlobalAxisofGravity Y
BoneLengthAxis Y
ScaleFactor 1.0
[SegmentNames&Hierarchy]
Hips	GLOBAL
Spine	Hips
Spine1	Spine
Spine2	Spine1
Neck	Spine2
Head	Neck
LeftEye	Head
RightEye	Head
LeftShoulder	Spine2
LeftArm	LeftShoulder
LeftForeArm	LeftArm
LeftHand	LeftForeArm
LeftHandThumb1	LeftHand
LeftHandThumb2	LeftHandThumb1
LeftHandThumb3	LeftHandThumb2
LeftHandThumb4	LeftHandThumb3
LeftHandIndex1	LeftHand
LeftHandIndex2	LeftHandIndex1
LeftHandIndex3	LeftHandIndex2
LeftHandIndex4	LeftHandIndex3
LeftHandMiddle1	LeftHand
LeftHandMiddle2	LeftHandMiddle1
LeftHandMiddle3	LeftHandMiddle2
LeftHandMiddle4	LeftHandMiddle3
LeftHandRing1	LeftHand
LeftHandRing2	LeftHandRing1
LeftHandRing3	LeftHandRing2
LeftHandRing4	LeftHandRing3
LeftHandPinky1	LeftHand
LeftHandPinky2	LeftHandPinky1
LeftHandPinky3	LeftHandPinky2
LeftHandPinky4	LeftHandPinky3
RightShoulder	Spine2
RightArm	RightShoulder
RightForeArm	RightArm
RightHand	RightForeArm
RightHandPinky1	RightHand
RightHandPinky2	RightHandPinky1
RightHandPinky3	RightHandPinky2
RightHandPinky4	RightHandPinky3
RightHandRing1	RightHand
RightHandRing2	RightHandRing1
RightHandRing3	RightHandRing2
RightHandRing4	RightHandRing3
RightHandMiddle1	RightHand
RightHandMiddle2	RightHandMiddle1
RightHandMiddle3	RightHandMiddle2
RightHandMiddle4	RightHandMiddle3
RightHandIndex1	RightHand
RightHandIndex2	RightHandIndex1
RightHandIndex3	RightHandIndex2
RightHandIndex4	RightHandIndex3
RightHandThumb1	RightHand
RightHandThumb2	RightHandThumb1
RightHandThumb3	RightHandThumb2
RightHandThumb4	RightHandThumb3
LeftUpLeg	Hips
LeftLeg	LeftUpLeg
LeftFoot	LeftLeg
LeftToeBase	LeftFoot
RightUpLeg	Hips
RightLeg	RightUpLeg
RightFoot	RightLeg
RightToeBase	RightFoot
[BasePosition]
Hips	0	0	0	0	0	0	1
Spine	0	0	0	0	0	0	1
Spine1	0	0	0	0	0	0	1
Spine2	0	0	0	0	0	0	1
Neck	0	0	0	0	0	0	1
Head	0	0	0	0	0	0	1
LeftEye	0	0	0	0	0	0	1
RightEye	0	0	0	0	0	0	1
LeftShoulder	0	0	0	0	0	0	1
LeftArm	0	0	0	0	0	0	1
LeftForeArm	0	0	0	0	0	0	1
LeftHand	0	0	0	0	0	0	1
LeftHandThumb1	0	0	0	0	0	0	1
LeftHandThumb2	0	0	0	0	0	0	1
LeftHandThumb3	0	0	0	0	0	0	1
LeftHandThumb4	0	0	0	0	0	0	1
LeftHandIndex1	0	0	0	0	0	0	1
LeftHandIndex2	0	0	0	0	0	0	1
LeftHandIndex3	0	0	0	0	0	0	1
LeftHandIndex4	0	0	0	0	0	0	1
LeftHandMiddle1	0	0	0	0	0	0	1
LeftHandMiddle2	0	0	0	0	0	0	1
LeftHandMiddle3	0	0	0	0	0	0	1
LeftHandMiddle4	0	0	0	0	0	0	1
LeftHandRing1	0	0	0	0	0	0	1
LeftHandRing2	0	0	0	0	0	0	1
LeftHandRing3	0	0	0	0	0	0	1
LeftHandRing4	0	0	0	0	0	0	1
LeftHandPinky1	0	0	0	0	0	0	1
LeftHandPinky2	0	0	0	0	0	0	1
LeftHandPinky3	0	0	0	0	0	0	1
LeftHandPinky4	0	0	0	0	0	0	1
RightShoulder	0	0	0	0	0	0	1
RightArm	0	0	0	0	0	0	1
RightForeArm	0	0	0	0	0	0	1
RightHand	0	0	0	0	0	0	1
RightHandPinky1	0	0	0	0	0	0	1
RightHandPinky2	0	0	0	0	0	0	1
RightHandPinky3	0	0	0	0	0	0	1
RightHandPinky4	0	0	0	0	0	0	1
RightHandRing1	0	0	0	0	0	0	1
RightHandRing2	0	0	0	0	0	0	1
RightHandRing3	0	0	0	0	0	0	1
RightHandRing4	0	0	0	0	0	0	1
RightHandMiddle1	0	0	0	0	0	0	1
RightHandMiddle2	0	0	0	0	0	0	1
RightHandMiddle3	0	0	0	0	0	0	1
RightHandMiddle4	0	0	0	0	0	0	1
RightHandIndex1	0	0	0	0	0	0	1
RightHandIndex2	0	0	0	0	0	0	1
RightHandIndex3	0	0	0	0	0	0	1
RightHandIndex4	0	0	0	0	0	0	1
RightHandThumb1	0	0	0	0	0	0	1
RightHandThumb2	0	0	0	0	0	0	1
RightHandThumb3	0	0	0	0	0	0	1
RightHandThumb4	0	0	0	0	0	0	1
LeftUpLeg	0	0	0	0	0	0	1
LeftLeg	0	0	0	0	0	0	1
LeftFoot	0	0	0	0	0	0	1
LeftToeBase	0	0	0	0	0	0	1
RightUpLeg	0	0	0	0	0	0	1
RightLeg	0	0	0	0	0	0	1
RightFoot	0	0	0	0	0	0	1
RightToeBase	0	0	0	0	0	0	1
[Hips]
39	1.36053133	628.1641846	383.0659485	5.699283123	1.317860246	-0.8136318922	1.0
40	1.24621284	634.3548584	368.2582092	2.545107841	1.258938909	-0.8893876076	1.0
41	1.032915592	642.885498	352.5137939	-0.04262957349	1.176647186	-0.9740963578	1.0
42	1.050515175	654.2975464	336.1938477	-1.878852129	1.057619929	-1.073720098	1.0
[Spine]
39	0	101.8159943	1.315000057	5.872739792	-1.230475307	0.9407375455	1.0
40	0	101.8159943	1.315000057	3.916554213	-1.255782247	0.9358329177	1.0
41	0	101.8159943	1.315000057	8.323518753	-1.177200198	0.9734033942	1.0
42	0	101.8159943	1.315000057	12.17638206	0.6738920808	1.443979621	1.0
[Spine1]
39	0	100.8349991	-10.00800037	3.522292137	-4.2932832e-05	5.203647743e-05	1.0
40	0	100.8349991	-10.00800037	0.4698060155	-0.03704153374	0.01145354286	1.0
41	0	100.8349991	-10.00800037	-8.333444595	-3.132626443e-05	5.984661766e-05	1.0
42	0	100.8349991	-10.00800037	-15.3907299	1.736739755	-0.5173527002	1.0
[Spine2]
39	0	91	-13.73399925	3.695419788	1.305764119e-08	3.166787508e-07	1.0
40	0	91	-13.73399925	1.725889087	-0.03870237246	0.00103167037	1.0
41	0	91	-13.73399925	-0.0001154361598	-2.41363864e-07	3.137975568e-07	1.0
42	0	91	-13.73399925	-1.255161881	1.811200976	-0.04530077428	1.0
[Neck]
39	0	166.7169952	-25.16200066	-1.314148068	3.202787298e-07	3.658241781e-07	1.0
40	0	166.7169952	-25.16200066	-0.6022742391	0.03894211352	-0.00116623519	1.0
41	0	166.7169952	-25.16200066	0.008941660635	2.614608263e-07	-1.337352273e-08	1.0
42	0	166.7169952	-25.16200066	0.4408616126	-1.820697188	0.04893035069	1.0
[Head]
39	0	96.17900085	16.84999847	7.404421806	0.05790979415	-0.02186824195	1.0
40	0	96.17900085	16.84999847	3.498200178	0.07181195915	-0.01336509362	1.0
41	0	96.17900085	16.84999847	0.0179052595	3.803534491e-05	-1.428708085e-08	1.0
42	0	96.17900085	16.84999847	-2.535212755	-2.85277319	0.1032889485	1.0
[LeftEye]
39	30.6760006	64.09500122	92.83599854	0	0	0	1.0
40	30.6760006	64.09500122	92.83599854	0	0	0	1.0
41	30.6760006	64.09500122	92.83599854	0	0	0	1.0
42	30.6760006	64.09500122	92.83599854	0	0	0	1.0
[RightEye]
39	-30.6760006	64.09500122	92.83499908	0	0	0	1.0
40	-30.6760006	64.09500122	92.83499908	0	0	0	1.0
41	-30.6760006	64.09500122	92.83499908	0	0	0	1.0
42	-30.6760006	64.09500122	92.83499908	0	0	0	1.0
[LeftShoulder]
39	45.70400238	109.4599991	-26.28000069	-0.02124774083	-5.195319176	8.13481617	1.0
40	45.70400238	109.4599991	-26.28000069	0.2345248312	-0.7724454999	3.838519812	1.0
41	45.70400238	109.4599991	-26.28000069	3.435202984e-07	8.993005736e-07	1.47850742e-05	1.0
42	45.70400238	109.4599991	-26.28000069	-0.1761026382	0.02261115238	-2.798624992	1.0
[LeftArm]
39	105.923996	-5.24600029	-22.32099915	-15.19541359	-9.466903687	-8.456930161	1.0
40	105.923996	-5.24600029	-22.32099915	-7.118731022	-1.377931476	-5.607993603	1.0
41	105.923996	-5.24600029	-22.32099915	8.291042832e-06	3.881438897e-05	0.0001571897737	1.0
42	105.923996	-5.24600029	-22.32099915	5.183403969	0.05222291127	4.169966221	1.0
[LeftForeArm]
39	278.414978	-0.0009999999311	0	-5.101183547e-07	-0.3759156168	-0.0002051047049	1.0
40	278.414978	-0.0009999999311	0	8.090370898e-07	-0.2009269148	-0.0002060174011	1.0
41	278.414978	-0.0009999999311	0	7.792210432e-09	-0.4166556597	-0.0002057927049	1.0
42	278.414978	-0.0009999999311	0	-5.059955583e-07	-10.40168571	-0.0002054950164	1.0
[LeftHand]
39	283.2879944	0	0	-2.266577244	-3.291056633	-5.302082062	1.0
40	283.2879944	0	0	-4.273031712	-2.580520391	-0.6352303028	1.0
41	283.2879944	0	0	-5.894141197	-2.348032236	3.362508059	1.0
42	283.2879944	0	0	-7.069115639	-2.276827812	6.260657787	1.0
[LeftHandThumb1]
39	24.6609993	-15.75	26.8239994	-1.318972588	-3.696644306	0.1565508544	1.0
40	24.6609993	-15.75	26.8239994	-4.116938591	-5.410208702	2.727819204	1.0
41	24.6609993	-15.75	26.8239994	-6.515933514	-5.594459534	5.268239498	1.0
42	24.6609993	-15.75	26.8239994	-8.237494469	-5.514883518	7.130431652	1.0
[LeftHandThumb2]
39	32.29800034	-18.64699936	18.64699936	14.83019447	21.99969864	7.140572548	1.0
40	32.29800034	-18.64699936	18.64699936	9.310955048	13.59926891	3.356312275	1.0
41	32.29800034	-18.64699936	18.64699936	6.421836853	12.43067932	2.707375288	1.0
42	32.29800034	-18.64699936	18.64699936	4.529648781	12.72796154	2.502682924	1.0
[LeftHandThumb3]
39	26.52600098	-15.31499958	15.31499958	-3.47806263	4.60662365	14.26870918	1.0
40	26.52600098	-15.31499958	15.31499958	-5.977864265	1.488423586	13.37873936	1.0
41	26.52600098	-15.31499958	15.31499958	-7.237569809	1.26126492	13.09554005	1.0
42	26.52600098	-15.31499958	15.31499958	-7.976398468	1.557600379	12.95077991	1.0
[LeftHandThumb4]
39	19.54599953	-11.28499985	11.28499985	0	0	0	1.0
40	19.54599953	-11.28499985	11.28499985	0	0	0	1.0
41	19.54599953	-11.28499985	11.28499985	0	0	0	1.0
42	19.54599953	-11.28499985	11.28499985	0	0	0	1.0
[LeftHandIndex1]
39	91.09299469	-5.170999527	22.60099792	-0.9905375838	4.233053207	-18.50323677	1.0
40	91.09299469	-5.170999527	22.60099792	-0.4656706154	3.357879162	-10.49585533	1.0
41	91.09299469	-5.170999527	22.60099792	-0.07261818647	2.677021742	-3.107097626	1.0
42	91.09299469	-5.170999527	22.60099792	0.1515945941	2.1234622	2.280212641	1.0
[LeftHandIndex2]
39	36.76399994	0	0	-0.05084132031	0.7688439488	-7.558065891	1.0
40	36.76399994	0	0	-0.01230419893	0.3693172634	-3.621883631	1.0
41	36.76399994	0	0	-2.757749229e-08	3.910957673e-07	-3.811966053e-06	1.0
42	36.76399994	0	0	0.0003061681055	-0.007567090448	0.07424011827	1.0
[LeftHandIndex3]
39	28.83100128	0	0	-0.02413528599	0.5330246687	-5.231421947	1.0
40	28.83100128	0	0	-0.005362678785	0.2516810596	-2.467416286	1.0
41	28.83100128	0	0	-2.81806507e-08	4.001158231e-07	-3.899883268e-06	1.0
42	28.83100128	0	0	-0.003068489488	-0.184036538	1.804308176	1.0
[LeftHandIndex4]
39	23.92700005	0	0	0	0	0	1.0
40	23.92700005	0	0	0	0	0	1.0
41	23.92700005	0	0	0	0	0	1.0
42	23.92700005	0	0	0	0	0	1.0
[LeftHandMiddle1]
39	95.33399963	0	0	-1.08584094	3.251706839	-19.70979691	1.0
40	95.33399963	0	0	-0.503213048	3.28104043	-11.04526901	1.0
41	95.33399963	0	0	-0.07261778414	2.677021027	-3.107098103	1.0
42	95.33399963	0	0	0.1656759381	2.087035894	2.66772747	1.0
[LeftHandMiddle2]
39	36.98199844	0	0	-0.08258910477	0.978663981	-9.638285637	1.0
40	36.98199844	0	0	-0.02017796412	0.4723212421	-4.63358593	1.0
41	36.98199844	0	0	-3.534653104e-08	5.01208433e-07	-4.885222097e-06	1.0
42	36.98199844	0	0	0.0005030186148	-0.009667168371	0.09491424263	1.0
[LeftHandMiddle3]
39	29.50900078	0	0	-0.02454136126	0.5355627537	-5.256989002	1.0
40	29.50900078	0	0	-0.006535718683	0.2714417279	-2.66149354	1.0
41	29.50900078	0	0	-4.610726378e-08	6.542089181e-07	-6.376500096e-06	1.0
42	29.50900078	0	0	-0.003628801089	-0.1998387128	1.959306359	1.0
[LeftHandMiddle4]
39	28.3390007	0	0	0	0	0	1.0
40	28.3390007	0	0	0	0	0	1.0
41	28.3390007	0	0	0	0	0	1.0
42	28.3390007	0	0	0	0	0	1.0
[LeftHandRing1]
39	91.04499817	-0.4390000105	-18.65100098	-0.9440365434	4.061302185	-17.86391068	1.0
40	91.04499817	-0.4390000105	-18.65100098	-0.4471452832	3.392255783	-10.19727802	1.0
41	91.04499817	-0.4390000105	-18.65100098	-0.07261773944	2.67702055	-3.107097149	1.0
42	91.04499817	-0.4390000105	-18.65100098	0.1437263191	2.14531374	2.066020012	1.0
[LeftHandRing2]
39	31.54000092	0	0	-0.0370897688	0.6573545337	-6.457098007	1.0
40	31.54000092	0	0	-0.009440920316	0.3217117488	-3.154719591	1.0
41	31.54000092	0	0	-2.422387446e-08	3.441234071e-07	-3.354132105e-06	1.0
42	31.54000092	0	0	0.0002319310734	-0.006566437893	0.06440854818	1.0
[LeftHandRing3]
39	29.37700081	0	0	-0.02502758615	0.5408856869	-5.309313297	1.0
40	29.37700081	0	0	-0.006281455513	0.267858386	-2.626270294	1.0
41	29.37700081	0	0	-2.210064665e-08	3.131489166e-07	-3.05222693e-06	1.0
42	29.37700081	0	0	-0.003509418573	-0.1966373175	1.927899241	1.0
[LeftHandRing4]
39	26.47500038	0	0	0	0	0	1.0
40	26.47500038	0	0	0	0	0	1.0
41	26.47500038	0	0	0	0	0	1.0
42	26.47500038	0	0	0	0	0	1.0
[LeftHandPinky1]
39	80.77799988	-4.887000084	-38.06099701	-0.7866620421	3.686960697	-15.5831337	1.0
40	80.77799988	-4.887000084	-38.06099701	-0.3838771582	3.292909622	-9.102999687	1.0
41	80.77799988	-4.887000084	-38.06099701	-0.07261852175	2.67702055	-3.107095957	1.0
42	80.77799988	-4.887000084	-38.06099701	0.1139347106	2.228304148	1.274153948	1.0
[LeftHandPinky2]
39	36	0	0	-0.01464112662	0.4125234485	-4.047073364	1.0
40	36	0	0	-0.003961191047	0.2068305165	-2.027733088	1.0
41	36	0	0	-1.573103781e-08	2.231186329e-07	-2.174711653e-06	1.0
42	36	0	0	9.416085231e-05	-0.004199036397	0.04116684198	1.0
[LeftHandPinky3]
39	21.14200211	0	0	-0.02777545154	0.5736067295	-5.630637169	1.0
40	21.14200211	0	0	-0.006246794015	0.2716416121	-2.663179159	1.0
41	21.14200211	0	0	-1.421100659e-08	2.01334359e-07	-1.962382839e-06	1.0
42	21.14200211	0	0	-0.003586466191	-0.199026674	1.951347232	1.0
[LeftHandPinky4]
39	19.75699997	0	0	0	0	0	1.0
40	19.75699997	0	0	0	0	0	1.0
41	19.75699997	0	0	0	0	0	1.0
42	19.75699997	0	0	0	0	0	1.0
[RightShoulder]
39	-45.70000076	109.4620056	-26.28000069	-0.02125724219	5.195314884	-8.134815216	1.0
40	-45.70000076	109.4620056	-26.28000069	0.2345157415	0.7724445462	-3.838522196	1.0
41	-45.70000076	109.4620056	-26.28000069	3.435007727e-07	-8.992999483e-07	-1.434631122e-05	1.0
42	-45.70000076	109.4620056	-26.28000069	-0.1760939658	-0.02261174098	2.798628092	1.0
[RightArm]
39	-105.9280014	-5.248000145	-22.32099915	-15.19535255	9.466976166	8.45717144	1.0
40	-105.9280014	-5.248000145	-22.32099915	-7.118708611	1.378018498	5.608195305	1.0
41	-105.9280014	-5.248000145	-22.32099915	8.274254469e-06	3.479645966e-05	-1.470660573e-05	1.0
42	-105.9280014	-5.248000145	-22.32099915	5.183396339	-0.05216895789	-4.169874191	1.0
[RightForeArm]
39	-278.414978	0	0	7.83442772e-07	0.3757137656	-4.469912369e-07	1.0
40	-278.414978	0	0	-5.002234502e-07	0.2007264495	2.433304758e-07	1.0
41	-278.414978	0	0	1.445698494e-08	0.4164534807	2.647563765e-11	1.0
42	-278.414978	0	0	-1.344307918e-07	10.40148449	-2.573125357e-07	1.0
[RightHand]
39	-283.2879944	0	0.0009999999311	-1.042842865	3.169946671	6.053629398	1.0
40	-283.2879944	0	0.0009999999311	-3.058294058	2.485819817	1.390120387	1.0
41	-283.2879944	0	0.0009999999311	-4.682256699	2.274722099	-2.605359793	1.0
42	-283.2879944	0	0.0009999999311	-5.858034611	2.219057083	-5.502198696	1.0
[RightHandPinky1]
39	-80.76699829	-4.885000229	-38.06000137	-0.6961681843	-3.239973545	14.90312576	1.0
40	-80.76699829	-4.885000229	-38.06000137	-0.336628437	-2.973239899	8.419122696	1.0
41	-80.76699829	-4.885000229	-38.06000137	-0.05218906328	-2.478959799	2.413324356	1.0
42	-80.76699829	-4.885000229	-38.06000137	0.1230684444	-2.120533228	-1.975773931	1.0
[RightHandPinky2]
39	-36	0	0.0009999999311	-0.01155409962	-0.3265442848	4.054772377	1.0
40	-36	0	0.0009999999311	-0.003100814763	-0.1629258394	2.031599045	1.0
41	-36	0	0.0009999999311	1.320737795e-07	0.001591405482	2.182965318e-06	1.0
42	-36	0	0.0009999999311	7.504577661e-05	0.004931296688	-0.04124520719	1.0
[RightHandPinky3]
39	-21.14200211	0	0	-0.02213387936	-0.4562530518	5.641346931	1.0
40	-21.14200211	0	0	-0.004977747798	-0.2160672694	2.668279171	1.0
41	-21.14200211	0	0	-4.554854343e-07	-3.375605218e-07	4.138396434e-06	1.0
42	-21.14200211	0	0	-0.002858672757	0.158308357	-1.955071449	1.0
[RightHandPinky4]
39	-19.75699997	0	0	0	0	0	1.0
40	-19.75699997	0	0	0	0	0	1.0
41	-19.75699997	0	0	0	0	0	1.0
42	-19.75699997	0	0	0	0	0	1.0
[RightHandRing1]
39	-91.03599548	-0.4390000105	-18.65100098	-0.8350892067	-3.569186687	17.1894722	1.0
40	-91.03599548	-0.4390000105	-18.65100098	-0.3935979903	-3.049115181	9.51482296	1.0
41	-91.03599548	-0.4390000105	-18.65100098	-0.05218850821	-2.477365732	2.413324356	1.0
42	-91.03599548	-0.4390000105	-18.65100098	0.151597634	-2.052345037	-2.769129753	1.0
[RightHandRing2]
39	-31.54000092	0	0	-0.02956033126	-0.5228649378	6.469326019	1.0
40	-31.54000092	0	0	-0.007523934357	-0.2558940053	3.16074276	1.0
41	-31.54000092	0	0	4.01144149e-07	-3.007067733e-07	3.358408549e-06	1.0
42	-31.54000092	0	0	0.0001839928445	0.00522304792	-0.06454566866	1.0
[RightHandRing3]
39	-29.37700081	0	0	-0.01994140446	-0.4302285314	5.319393635	1.0
40	-29.37700081	0	0	-0.005006381311	-0.2130584419	2.631272554	1.0
41	-29.37700081	0	0	-4.476293043e-07	-2.491711371e-07	3.054768285e-06	1.0
42	-29.37700081	0	0	-0.002796143526	0.1564139277	-1.931576967	1.0
[RightHandRing4]
39	-26.47500038	0	0	0	0	0	1.0
40	-26.47500038	0	0	0	0	0	1.0
41	-26.47500038	0	0	0	0	0	1.0
42	-26.47500038	0	0	0	0	0	1.0
[RightHandMiddle1]
39	-95.32500458	0	0	-0.9595063925	-2.725122452	19.01915932	1.0
40	-95.32500458	0	0	-0.4443203211	-2.921046019	10.36005592	1.0
41	-95.32500458	0	0	-0.05218858272	-2.477366686	2.413325787	1.0
42	-95.32500458	0	0	0.1727377474	-2.006531477	-3.371887684	1.0
[RightHandMiddle2]
39	-36.98199844	0	0	-0.06581450999	-0.7784293294	9.656346321	1.0
40	-36.98199844	0	0	-0.01608083211	-0.3756905794	4.642417431	1.0
41	-36.98199844	0	0	3.821440657e-07	-4.877680908e-07	5.979899925e-06	1.0
42	-36.98199844	0	0	0.000399478944	0.007692611311	-0.09504238516	1.0
[RightHandMiddle3]
39	-29.50900078	0	0	-0.01956105791	-0.4280119538	5.266985416	1.0
40	-29.50900078	0	0	-0.005208294839	-0.2179296315	2.666569471	1.0
41	-29.50900078	0	0	-4.559931597e-07	-0.002022120869	4.209969575e-06	1.0
42	-29.50900078	0	0	-0.002889650641	0.1569277644	-1.963043451	1.0
[RightHandMiddle4]
39	-28.3390007	0	0.0009999999311	0	0	0	1.0
40	-28.3390007	0	0.0009999999311	0	0	0	1.0
41	-28.3390007	0	0.0009999999311	0	0	0	1.0
42	-28.3390007	0	0.0009999999311	0	0	0	1.0
[RightHandIndex1]
39	-91.08300018	-5.167999744	22.60099792	-0.876214087	-3.728823662	17.8318634	1.0
40	-91.08300018	-5.167999744	22.60099792	-0.4102694392	-3.008791208	9.812610626	1.0
41	-91.08300018	-5.167999744	22.60099792	-0.05218861252	-2.477362871	2.413326502	1.0
42	-91.08300018	-5.167999744	22.60099792	0.1591599584	-2.034925461	-2.983709097	1.0
[RightHandIndex2]
39	-36.76399994	0	0	-0.04051500186	-0.6115374565	7.572335243	1.0
40	-36.76399994	0	0	-0.009805104695	-0.2937607467	3.628771782	1.0
41	-36.76399994	0	0	3.977839071e-07	-3.38258701e-07	3.818784535e-06	1.0
42	-36.76399994	0	0	0.0002445321297	0.006018514279	-0.07439602911	1.0
[RightHandIndex3]
39	-28.83100128	0	0	-0.01923767291	-0.4239694476	5.241371155	1.0
40	-28.83100128	0	0	-0.004273847677	-0.2001900375	2.472116947	1.0
41	-28.83100128	0	0	-4.459131446e-07	-2.299206869e-07	2.818763278e-06	1.0
42	-28.83100128	0	0	-0.002440778771	0.1463820934	-1.80774343	1.0
[RightHandIndex4]
39	-23.92700005	0	0	0	0	0	1.0
40	-23.92700005	0	0	0	0	0	1.0
41	-23.92700005	0	0	0	0	0	1.0
42	-23.92700005	0	0	0	0	0	1.0
[RightHandThumb1]
39	-24.64799881	-15.72700024	26.82600021	-2.349933147	5.721101761	0.2967306674	1.0
40	-24.64799881	-15.72700024	26.82600021	-5.12704134	7.440973282	-2.400628328	1.0
41	-24.64799881	-15.72700024	26.82600021	-7.535458565	7.620223045	-5.027753353	1.0
42	-24.64799881	-15.72700024	26.82600021	-9.265865326	7.53405571	-6.949283123	1.0
[RightHandThumb2]
39	-32.29800034	-18.64699936	18.64699936	15.60615349	-23.7050724	-8.262661934	1.0
40	-32.29800034	-18.64699936	18.64699936	10.00023556	-15.287323	-4.435622692	1.0
41	-32.29800034	-18.64699936	18.64699936	7.098097324	-14.10493469	-3.79229188	1.0
42	-32.29800034	-18.64699936	18.64699936	5.199165821	-14.39346027	-3.591665983	1.0
[RightHandThumb3]
39	-26.52600098	-15.31399918	15.31399918	-0.08576905727	-10.00111008	-15.70604515	1.0
40	-26.52600098	-15.31399918	15.31399918	-2.67858243	-6.924484253	-14.61551952	1.0
41	-26.52600098	-15.31399918	15.31399918	-3.95047164	-6.714655399	-14.22184658	1.0
42	-26.52600098	-15.31399918	15.31399918	-4.690837383	-7.02043438	-14.00797558	1.0
[RightHandThumb4]
39	-19.54599953	-11.28499985	11.28499985	0	0	0	1.0
40	-19.54599953	-11.28499985	11.28499985	0	0	0	1.0
41	-19.54599953	-11.28499985	11.28499985	0	0	0	1.0
42	-19.54599953	-11.28499985	11.28499985	0	0	0	1.0
[LeftUpLeg]
39	82.07800293	-67.51699829	-15.99599934	-20.63881111	0.145512417	3.401116848	1.0
40	82.07800293	-67.51699829	-15.99599934	-18.71782875	-0.2458315939	2.230364561	1.0
41	82.07800293	-67.51699829	-15.99599934	-17.56920624	-1.135256886	0.8877657056	1.0
42	82.07800293	-67.51699829	-15.99599934	-17.33705139	-1.154883742	0.8613434434	1.0
[LeftLeg]
39	0	-443.7049866	2.845999956	101.3695145	2.663063049	-3.940579414	1.0
40	0	-443.7049866	2.845999956	101.6634979	1.223715425	-2.177364588	1.0
41	0	-443.7049866	2.845999956	101.7033615	-0.2388418764	0.8748392463	1.0
42	0	-443.7049866	2.845999956	101.361908	-0.2918401957	1.042331696	1.0
[LeftFoot]
39	0	-444.2789917	-29.8219986	-44.4400444	1.401557803	4.119686604	1.0
40	0	-444.2789917	-29.8219986	-44.52972794	0.8396584392	2.089318037	1.0
41	0	-444.2789917	-29.8219986	-44.07269669	-0.4166574478	-1.376021504	1.0
42	0	-444.2789917	-29.8219986	-42.81438828	-0.4444966912	-1.504535198	1.0
[LeftToeBase]
39	0	-87.28699493	107.1060028	-48.67355728	-3.293571922e-07	-9.173464832e-07	1.0
40	0	-87.28699493	107.1060028	-47.35761642	4.30969834e-07	1.59235384e-07	1.0
41	0	-87.28699493	107.1060028	-45.75188446	-1.403172263e-07	4.250743189e-07	1.0
42	0	-87.28699493	107.1060028	-45.05467224	-6.236716104e-07	4.325975738e-07	1.0
[RightUpLeg]
39	-82.07800293	-67.51699829	-15.99599934	-91.27996063	-0.8649126887	-0.8555955291	1.0
40	-82.07800293	-67.51699829	-15.99599934	-87.42582703	-0.2348401845	-0.3293386102	1.0
41	-82.07800293	-67.51699829	-15.99599934	-83.711586	0.1544544399	0.2502618432	1.0
42	-82.07800293	-67.51699829	-15.99599934	-80.24129486	0.2629601061	0.3566759527	1.0
[RightLeg]
39	0	-443.7049866	2.861999989	80.53404236	-1.963036418	-0.5037703514	1.0
40	0	-443.7049866	2.861999989	78.30389404	-0.9831496477	-0.905259192	1.0
41	0	-443.7049866	2.861999989	75.40660095	-0.265317589	-1.289537072	1.0
42	0	-443.7049866	2.861999989	71.72051239	-0.3335011303	-1.287211657	1.0
[RightFoot]
39	0	-444.2770081	-29.83799934	5.069283009	0.1254739016	-0.1561865509	1.0
40	0	-444.2770081	-29.83799934	6.582895756	-0.0892130211	0.3220508397	1.0
41	0	-444.2770081	-29.83799934	8.343347549	-0.1074539274	0.5912048221	1.0
42	0	-444.2770081	-29.83799934	10.39447975	-0.1124100685	0.560115397	1.0
[RightToeBase]
39	0	-87.28699493	107.1060028	-1.515573604e-05	-2.909377805e-08	-1.999551955e-07	1.0
40	0	-87.28699493	107.1060028	-1.515573604e-05	-2.909377805e-08	-1.999551955e-07	1.0
41	0	-87.28699493	107.1060028	-1.515573604e-05	-2.909377805e-08	-1.999551955e-07	1.0
42	0	-87.28699493	107.1060028	-1.515573604e-05	-2.909377805e-08	-1.999551955e-07	1.0
[EndOfFile]
